<svg xmlns="http://www.w3.org/2000/svg" version="1.1" xmlns:xlink="http://www.w3.org/1999/xlink" width="1024" height="1024"><svg xmlns="http://www.w3.org/2000/svg" version="1.1" xmlns:xlink="http://www.w3.org/1999/xlink" width="1024" height="1024"><svg xmlns="http://www.w3.org/2000/svg" width="1024" height="1024" viewBox="0 0 1024 1024">
<g>
<path d="M 751.14 694.97 C744.89,695.59 704.04,696.00 648.06,696.00 L 555.34 696.00 L 551.96 690.75 C550.11,687.86 537.14,668.17 523.15,647.00 C509.15,625.83 494.17,603.15 489.85,596.61 C485.53,590.07 482.00,584.22 482.01,583.61 C482.01,583.00 483.70,581.38 485.76,580.00 C491.09,576.44 508.47,559.50 513.46,553.00 C533.49,526.93 542.96,503.59 546.50,471.63 C547.96,458.46 547.68,447.50 545.42,430.00 C544.71,424.54 540.63,408.71 537.82,400.50 C529.65,376.69 510.53,350.28 490.22,334.75 C487.31,332.53 485.10,330.21 485.30,329.60 C485.87,327.89 736.29,328.06 749.00,329.79 C763.53,331.77 777.42,334.79 786.39,337.94 C833.11,354.33 856.65,385.33 856.29,430.00 C856.14,448.47 851.83,463.40 842.68,477.20 C837.45,485.09 825.68,496.87 818.32,501.57 L 812.72 505.15 L 821.61 510.22 C846.04,524.14 860.68,543.22 866.31,568.50 C871.49,591.69 867.86,619.91 857.28,638.83 C848.95,653.71 837.60,665.02 820.91,675.05 C805.07,684.57 777.94,692.32 751.14,694.97 ZM 597.47 626.75 C597.84,627.73 611.33,628.00 660.34,628.00 C728.32,628.00 733.53,627.66 747.50,622.34 C760.39,617.42 767.63,611.53 772.22,602.21 C775.13,596.31 775.54,594.44 775.85,585.66 C776.25,574.22 775.14,569.08 770.39,560.39 L 767.06 554.28 L 775.27 549.89 C785.25,544.56 796.63,533.82 800.06,526.50 C801.99,522.38 802.41,519.83 802.44,512.00 C802.46,503.97 802.10,501.75 800.09,497.67 C794.88,487.10 783.51,477.45 767.63,470.12 C762.88,467.92 759.00,465.83 759.00,465.45 C759.00,465.08 760.69,461.37 762.75,457.19 C766.40,449.81 766.50,449.31 766.50,438.55 C766.50,428.35 766.27,427.04 763.56,421.51 C758.19,410.57 749.11,403.67 734.33,399.29 C729.12,397.74 721.53,397.53 662.76,397.24 L 597.03 396.92 L 596.76 432.67 L 596.50 468.42 L 593.50 469.94 C575.60,478.97 565.33,487.55 560.40,497.60 C557.89,502.71 557.50,504.63 557.51,512.00 C557.52,518.69 558.00,521.55 559.78,525.42 C564.40,535.49 573.07,543.31 589.00,551.75 L 596.50 555.73 L 596.75 590.61 C596.89,609.80 597.21,626.06 597.47,626.75 ZM 645.90 609.44 C634.95,612.69 626.53,610.67 619.77,603.18 C613.87,596.63 612.82,593.15 612.25,578.25 C611.80,566.54 612.53,557.99 614.58,550.90 C614.93,549.68 613.49,548.78 608.49,547.14 C588.29,540.51 571.45,527.23 569.40,516.31 C567.79,507.75 572.44,497.86 581.39,490.78 C586.73,486.57 600.82,479.13 607.50,477.01 C611.15,475.85 612.98,475.36 613.73,474.18 C614.47,473.01 614.14,471.17 613.45,467.33 C613.39,467.00 613.33,466.66 613.27,466.31 C612.43,461.53 612.02,453.64 612.21,446.00 C612.49,435.02 612.85,432.82 615.14,427.91 C623.39,410.21 640.70,408.35 662.48,422.82 C666.34,425.38 671.87,429.62 674.76,432.24 L 680.02 436.99 L 687.54 430.69 C697.16,422.62 703.73,418.67 712.74,415.52 C723.94,411.61 732.03,412.45 738.59,418.21 C742.84,421.94 745.31,426.57 747.42,434.70 C749.66,443.34 749.40,453.40 746.49,470.57 L 745.80 474.64 L 754.42 477.74 C776.93,485.85 791.01,498.68 790.99,511.07 C790.98,519.24 789.25,522.96 782.15,530.01 C775.03,537.08 762.78,544.14 751.65,547.61 L 745.79 549.43 L 746.35 552.97 C746.66,554.91 747.37,559.42 747.94,563.00 C752.46,591.71 742.61,611.05 723.50,610.97 C714.58,610.94 702.47,605.02 688.28,593.75 C684.29,590.59 680.75,588.00 680.41,588.00 C680.06,588.00 677.02,590.17 673.64,592.83 C661.24,602.58 653.63,607.14 645.90,609.44 ZM 659.30 545.75 C661.29,547.93 661.92,548.00 680.22,548.00 C681.85,548.00 683.35,548.01 684.73,548.01 C693.17,548.05 697.15,548.07 700.07,546.32 C703.17,544.45 705.07,540.59 709.79,532.63 C717.02,520.45 719.95,514.37 719.98,511.45 C720.00,509.42 710.68,492.37 704.08,482.38 C700.76,477.35 700.58,477.24 694.70,476.63 C686.93,475.81 673.95,475.83 666.02,476.66 L 659.75 477.31 L 654.49 485.41 C651.59,489.86 647.09,497.60 644.47,502.61 L 639.73 511.73 L 642.50 517.61 C646.01,525.06 656.59,542.78 659.30,545.75 ZM 732.00 471.02 C733.38,471.41 734.85,471.42 735.28,471.04 C736.65,469.81 738.17,457.77 738.18,448.00 C738.19,437.02 735.67,428.74 731.37,425.62 C727.26,422.64 718.27,423.80 709.55,428.43 C701.66,432.63 694.74,437.51 690.83,441.67 L 688.16 444.50 L 697.02 455.56 L 705.88 466.61 L 717.69 468.46 C724.19,469.48 730.62,470.63 732.00,471.02 ZM 625.23 470.74 C625.78,471.42 626.57,471.77 626.99,471.51 C627.41,471.25 633.53,470.09 640.59,468.95 C647.64,467.80 653.74,466.66 654.14,466.41 C654.54,466.16 658.78,461.21 663.56,455.40 L 672.24 444.84 L 668.87 441.32 C657.02,428.95 639.06,421.28 630.78,425.05 C625.57,427.43 622.07,436.23 622.02,447.09 C621.99,454.54 623.98,469.19 625.23,470.74 ZM 633.50 600.28 C640.85,602.04 655.45,595.02 667.87,583.75 C670.14,581.69 672.00,579.75 672.00,579.44 C672.00,577.81 654.30,557.88 652.55,557.53 C651.42,557.30 645.55,556.23 639.50,555.15 C633.45,554.06 627.75,552.88 626.84,552.51 C625.47,551.97 624.94,552.90 623.89,557.68 C621.98,566.31 622.18,586.61 624.21,591.00 C626.10,595.07 630.63,599.60 633.50,600.28 ZM 713.50 597.36 C730.20,604.49 738.22,597.57 738.26,576.00 C738.28,566.46 736.82,554.48 735.47,553.14 C735.18,552.84 731.24,553.37 726.72,554.30 C722.20,555.23 715.70,556.29 712.29,556.64 C706.11,557.27 706.06,557.30 701.34,563.39 C698.73,566.75 694.65,571.70 692.26,574.40 L 687.93 579.30 L 690.04 581.54 C693.89,585.64 707.42,594.76 713.50,597.36 ZM 741.96 536.40 C742.90,538.87 743.02,538.90 747.21,537.62 C766.03,531.87 781.11,520.34 780.96,511.80 C780.83,504.82 770.45,495.55 756.05,489.54 C745.47,485.12 742.46,484.96 741.57,488.75 C741.21,490.26 739.06,496.08 736.79,501.67 L 732.66 511.84 L 736.83 522.31 C739.12,528.07 741.00,533.02 741.00,533.32 C741.00,533.62 741.43,535.01 741.96,536.40 ZM 611.50 537.10 C611.72,537.19 611.94,537.26 612.15,537.34 C615.47,538.56 616.83,539.05 617.53,538.58 C618.05,538.22 618.21,537.31 618.55,535.75 C618.94,533.96 620.97,528.45 623.07,523.50 C625.16,518.55 627.01,513.83 627.17,513.00 C627.34,512.17 625.24,505.72 622.51,498.66 L 617.55 485.81 L 614.41 486.32 C604.53,487.92 585.92,498.81 581.96,505.29 C579.47,509.38 579.47,514.62 581.97,518.71 C585.46,524.44 597.74,532.09 611.50,537.10 ZM 688.53 530.55 C676.10,535.75 661.50,527.25 660.23,514.08 C658.50,496.04 680.54,485.04 693.87,497.30 C699.40,502.38 701.58,512.96 698.59,520.14 C696.68,524.71 692.73,528.80 688.53,530.55 ZM 633.62 498.19 C634.17,499.08 634.57,499.02 635.21,497.94 C641.12,487.94 646.01,478.67 645.59,478.26 C645.30,477.97 643.81,478.19 642.28,478.76 C640.75,479.33 636.91,480.32 633.75,480.97 C630.59,481.61 628.00,482.26 628.00,482.40 C628.00,483.14 632.99,497.18 633.62,498.19 ZM 715.00 545.50 C715.00,545.85 715.79,545.92 716.75,545.65 C717.71,545.39 721.54,544.60 725.25,543.90 C731.03,542.82 731.99,542.34 731.94,540.57 C731.85,537.44 727.66,526.70 726.36,526.28 C725.41,525.97 715.00,543.58 715.00,545.50 ZM 637.50 544.31 C640.64,545.03 645.00,545.06 645.00,544.37 C645.00,543.05 634.81,526.00 634.02,526.00 C633.17,526.00 630.44,532.95 629.01,538.74 L 628.97 538.90 C628.70,540.01 628.52,540.74 628.75,541.31 C629.21,542.43 631.29,542.88 637.50,544.31 ZM 720.26 488.79 C723.08,493.88 725.86,497.89 726.44,497.70 C727.02,497.52 728.62,494.12 730.00,490.15 C732.00,484.36 732.23,482.76 731.18,482.11 C729.65,481.17 716.05,478.61 715.50,479.17 C715.30,479.37 717.44,483.70 720.26,488.79 ZM 670.00 464.73 C670.00,466.26 689.53,466.57 690.46,465.06 C691.11,464.02 682.38,453.68 680.45,453.20 C679.05,452.85 670.00,462.84 670.00,464.73 ZM 676.47 567.83 L 680.50 572.15 L 685.75 566.33 C688.63,563.12 691.00,560.16 691.00,559.75 C691.00,559.34 685.98,559.00 679.85,559.00 L 668.69 559.00 L 670.56 561.25 C671.59,562.49 674.25,565.45 676.47,567.83 Z" fill="rgb(7,183,221)"></path>
<path d="M 250.00 586.00 L 250.00 696.00 L 156.00 696.00 L 156.00 328.00 L 260.25 328.00 C320.85,328.00 370.03,328.43 377.71,329.01 C420.97,332.31 452.19,344.34 476.35,367.00 C499.25,388.47 511.14,415.00 512.68,448.04 C513.67,469.19 510.56,487.20 502.59,506.41 C496.83,520.29 490.38,529.74 478.56,541.57 C467.00,553.14 455.80,561.15 441.84,567.82 C436.03,570.61 432.24,572.99 432.49,573.71 C432.83,574.70 490.77,662.46 506.96,686.50 C509.55,690.35 512.00,694.06 512.39,694.75 C512.97,695.74 502.88,696.00 463.31,696.00 L 413.50 696.00 L 405.00 682.97 C400.32,675.80 390.65,661.04 383.50,650.16 C376.35,639.28 363.98,620.40 356.00,608.20 L 341.50 586.01 L 295.75 586.01 ZM 315.00 514.06 C315.00,515.56 352.15,515.16 363.59,513.53 C392.37,509.44 410.43,495.52 417.39,472.07 C419.42,465.23 419.47,450.88 417.49,441.50 C414.22,425.96 404.79,413.57 391.00,406.74 C377.17,399.88 365.08,398.02 334.22,398.01 C314.07,398.00 313.90,397.98 308.72,395.27 C304.17,392.89 302.34,392.54 294.50,392.52 C286.72,392.50 284.82,392.85 280.50,395.11 C275.78,397.58 274.45,397.76 257.00,398.28 C235.88,398.91 227.39,400.61 215.00,406.67 C205.21,411.46 196.50,420.05 192.12,429.24 C188.83,436.15 186.85,446.00 188.75,446.00 C189.32,446.00 192.06,441.32 194.85,435.61 C200.52,424.01 205.61,418.62 216.24,412.95 C227.00,407.22 233.71,405.80 252.75,405.26 C262.24,404.99 269.99,404.94 269.98,405.14 C269.98,405.34 269.32,407.30 268.53,409.50 C266.39,415.43 266.61,427.55 268.98,434.43 C272.76,445.43 280.60,456.09 287.61,459.77 C294.07,463.16 301.73,461.36 304.62,455.77 C306.54,452.06 305.83,451.09 303.64,454.43 C302.74,455.80 300.28,457.43 298.17,458.07 C294.86,459.06 293.80,458.94 290.33,457.17 C288.12,456.04 284.94,453.55 283.26,451.64 C279.13,446.94 274.23,436.67 273.02,430.18 C271.23,420.59 274.39,407.57 279.68,402.79 C286.75,396.39 301.85,396.49 310.97,402.98 C313.42,404.73 315.37,405.00 325.37,405.00 C339.72,405.00 345.85,406.94 351.77,413.37 C359.71,421.98 362.04,433.68 361.92,464.32 C361.81,492.09 361.02,500.83 358.48,502.33 C354.61,504.62 352.19,504.77 348.18,502.97 C342.33,500.35 341.58,498.31 340.98,483.29 C340.47,470.38 340.39,470.02 337.54,467.04 C331.85,461.10 323.65,463.90 319.08,473.34 C317.22,477.17 317.00,479.46 317.00,494.76 C317.00,505.09 316.60,512.13 316.00,512.50 C315.45,512.84 315.00,513.54 315.00,514.06 ZM 251.67 514.33 C252.52,515.18 283.45,515.22 284.30,514.37 C284.65,514.02 284.27,512.80 283.46,511.65 C282.45,510.19 282.00,506.86 282.00,500.75 C282.00,491.58 280.35,485.46 277.60,484.40 C276.78,484.09 272.08,484.52 267.15,485.37 C262.23,486.21 256.58,486.64 254.60,486.32 L 251.00 485.74 L 251.00 499.70 C251.00,507.38 251.30,513.97 251.67,514.33 ZM 334.41 435.51 C336.84,439.21 342.00,438.59 342.00,434.59 C342.00,431.61 340.16,430.00 336.77,430.00 C333.23,430.00 332.27,432.24 334.41,435.51 ZM 306.00 449.00 C306.00,449.55 306.45,450.00 307.00,450.00 C307.55,450.00 308.00,449.55 308.00,449.00 C308.00,448.45 307.55,448.00 307.00,448.00 C306.45,448.00 306.00,448.45 306.00,449.00 Z" fill="rgb(66,89,150)"></path>
<path d="M 734.80 329.23 C679.33,328.05 485.80,328.09 485.30,329.60 C485.10,330.21 487.31,332.53 490.22,334.75 C495.58,338.85 500.86,343.70 505.87,349.07 C498.56,341.85 488.63,333.00 487.52,333.00 C486.88,333.00 485.27,331.85 483.95,330.45 L 481.55 327.90 L 612.03 328.28 C682.22,328.49 715.75,328.58 734.80,329.23 ZM 638.06 493.03 C638.59,492.04 639.19,490.90 639.88,489.58 C644.98,479.79 645.08,478.63 640.75,479.47 C639.67,479.68 638.55,479.90 637.45,480.13 C639.47,479.63 641.33,479.11 642.28,478.76 C643.81,478.19 645.30,477.97 645.59,478.26 C645.94,478.60 642.60,485.09 638.06,493.03 ZM 816.47 352.55 C807.83,346.82 797.80,341.94 786.39,337.94 C778.73,335.25 767.47,332.65 755.29,330.72 C759.69,331.32 763.45,332.09 768.39,333.09 C786.79,336.82 803.09,343.48 816.47,352.55 ZM 306.00 449.00 C306.00,448.45 306.45,448.00 307.00,448.00 C307.55,448.00 308.00,448.45 308.00,449.00 C308.00,449.55 307.55,450.00 307.00,450.00 C306.45,450.00 306.00,449.55 306.00,449.00 ZM 849.50 391.79 C854.22,403.08 856.40,415.46 856.29,430.00 C856.40,415.89 854.13,403.14 849.50,391.79 ZM 526.13 375.94 C531.03,384.07 535.05,392.44 537.82,400.50 C535.34,393.26 531.04,384.37 526.13,375.94 ZM 633.62 498.19 C633.61,498.18 633.60,498.17 633.60,498.16 C634.04,498.85 634.45,498.95 635.31,497.77 L 635.21 497.94 C634.57,499.02 634.17,499.08 633.62,498.19 ZM 628.00 482.42 C628.00,482.41 628.00,482.40 628.00,482.40 C628.00,482.30 629.27,481.95 631.12,481.53 C629.27,481.98 628.04,482.32 628.00,482.42 ZM 630.34 489.54 C629.69,487.70 629.07,485.90 628.64,484.57 C629.07,485.90 629.69,487.70 630.34,489.54 Z" fill="rgb(120,191,209)"></path>
<path d="M 0.00 512.00 L 0.00 0.00 L 512.00 0.00 L 1024.00 0.00 L 1024.00 512.00 L 1024.00 1024.00 L 512.00 1024.00 L 0.00 1024.00 L 0.00 512.00 ZM 250.00 641.00 L 250.00 586.00 L 295.75 586.01 L 341.50 586.01 L 356.00 608.20 C363.98,620.40 376.35,639.28 383.50,650.16 C390.65,661.04 400.32,675.80 405.00,682.97 L 413.50 696.00 L 463.31 696.00 C502.88,696.00 512.97,695.74 512.39,694.75 C512.00,694.06 509.55,690.35 506.96,686.50 C490.77,662.46 432.83,574.70 432.49,573.71 C432.24,572.99 436.03,570.61 441.84,567.82 C455.80,561.15 467.00,553.14 478.56,541.57 C490.38,529.74 496.83,520.29 502.59,506.41 C510.56,487.20 513.67,469.19 512.68,448.04 C511.14,415.00 499.25,388.47 476.35,367.00 C452.19,344.34 420.97,332.31 377.71,329.01 C370.03,328.43 320.85,328.00 260.25,328.00 L 156.00 328.00 L 156.00 512.00 L 156.00 696.00 L 203.00 696.00 L 250.00 696.00 L 250.00 641.00 ZM 751.14 694.97 C777.94,692.32 805.07,684.57 820.91,675.05 C837.60,665.02 848.95,653.71 857.28,638.83 C867.86,619.91 871.49,591.69 866.31,568.50 C860.68,543.22 846.04,524.14 821.61,510.22 L 812.72 505.15 L 818.32 501.57 C825.68,496.87 837.45,485.09 842.68,477.20 C851.83,463.40 856.14,448.47 856.29,430.00 C856.43,412.04 853.07,397.38 845.74,384.00 C831.82,358.58 804.06,340.31 768.39,333.09 C746.40,328.64 747.79,328.69 612.03,328.28 L 481.55 327.90 L 483.95 330.45 C485.27,331.85 486.88,333.00 487.52,333.00 C489.01,333.00 506.35,348.92 512.00,355.47 C521.58,366.60 533.05,386.60 537.82,400.50 C540.63,408.71 544.71,424.54 545.42,430.00 C547.68,447.50 547.96,458.46 546.50,471.63 C542.96,503.59 533.49,526.93 513.46,553.00 C508.47,559.50 491.09,576.44 485.76,580.00 C483.70,581.38 482.01,583.00 482.01,583.61 C482.00,584.22 485.53,590.07 489.85,596.61 C494.17,603.15 509.15,625.83 523.15,647.00 C537.14,668.17 550.11,687.86 551.96,690.75 L 555.34 696.00 L 648.06 696.00 C704.04,696.00 744.89,695.59 751.14,694.97 ZM 251.67 514.33 C251.30,513.97 251.00,507.38 251.00,499.70 L 251.00 485.74 L 254.60 486.32 C256.58,486.64 262.23,486.21 267.15,485.37 C272.08,484.52 276.78,484.09 277.60,484.40 C280.35,485.46 282.00,491.58 282.00,500.75 C282.00,506.86 282.45,510.19 283.46,511.65 C284.27,512.80 284.65,514.02 284.30,514.37 C283.45,515.22 252.52,515.18 251.67,514.33 ZM 315.00 514.06 C315.00,513.54 315.45,512.84 316.00,512.50 C316.60,512.13 317.00,505.09 317.00,494.76 C317.00,479.46 317.22,477.17 319.08,473.34 C323.65,463.90 331.85,461.10 337.54,467.04 C340.39,470.02 340.47,470.38 340.98,483.29 C341.58,498.31 342.33,500.35 348.18,502.97 C352.19,504.77 354.61,504.62 358.48,502.33 C361.02,500.83 361.81,492.09 361.92,464.32 C362.04,433.68 359.71,421.98 351.77,413.37 C345.85,406.94 339.72,405.00 325.37,405.00 C315.37,405.00 313.42,404.73 310.97,402.98 C301.85,396.49 286.75,396.39 279.68,402.79 C274.39,407.57 271.23,420.59 273.02,430.18 C274.23,436.67 279.13,446.94 283.26,451.64 C284.94,453.55 288.12,456.04 290.33,457.17 C293.80,458.94 294.86,459.06 298.17,458.07 C300.28,457.43 302.74,455.80 303.64,454.43 C305.83,451.09 306.54,452.06 304.62,455.77 C301.73,461.36 294.07,463.16 287.61,459.77 C280.60,456.09 272.76,445.43 268.98,434.43 C266.61,427.55 266.39,415.43 268.53,409.50 C269.32,407.30 269.98,405.34 269.98,405.14 C269.99,404.94 262.24,404.99 252.75,405.26 C233.71,405.80 227.00,407.22 216.24,412.95 C205.61,418.62 200.52,424.01 194.85,435.61 C192.06,441.32 189.32,446.00 188.75,446.00 C186.85,446.00 188.83,436.15 192.12,429.24 C196.50,420.05 205.21,411.46 215.00,406.67 C227.39,400.61 235.88,398.91 257.00,398.28 C274.45,397.76 275.78,397.58 280.50,395.11 C284.82,392.85 286.72,392.50 294.50,392.52 C302.34,392.54 304.17,392.89 308.72,395.27 C313.90,397.98 314.07,398.00 334.22,398.01 C365.08,398.02 377.17,399.88 391.00,406.74 C404.79,413.57 414.22,425.96 417.49,441.50 C419.47,450.88 419.42,465.23 417.39,472.07 C410.43,495.52 392.37,509.44 363.59,513.53 C352.15,515.16 315.00,515.56 315.00,514.06 ZM 334.41 435.51 C332.27,432.24 333.23,430.00 336.77,430.00 C340.16,430.00 342.00,431.61 342.00,434.59 C342.00,438.59 336.84,439.21 334.41,435.51 ZM 597.47 626.75 C597.21,626.06 596.89,609.80 596.75,590.61 L 596.50 555.73 L 589.00 551.75 C573.07,543.31 564.40,535.49 559.78,525.42 C558.00,521.55 557.52,518.69 557.51,512.00 C557.50,504.63 557.89,502.71 560.40,497.60 C565.33,487.55 575.60,478.97 593.50,469.94 L 596.50 468.42 L 596.76 432.67 L 597.03 396.92 L 662.76 397.24 C721.53,397.53 729.12,397.74 734.33,399.29 C749.11,403.67 758.19,410.57 763.56,421.51 C766.27,427.04 766.50,428.35 766.50,438.55 C766.50,449.31 766.40,449.81 762.75,457.19 C760.69,461.37 759.00,465.08 759.00,465.45 C759.00,465.83 762.88,467.92 767.63,470.12 C783.51,477.45 794.88,487.10 800.09,497.67 C802.10,501.75 802.46,503.97 802.44,512.00 C802.41,519.83 801.99,522.38 800.06,526.50 C796.63,533.82 785.25,544.56 775.27,549.89 L 767.06 554.28 L 770.39 560.39 C775.14,569.08 776.25,574.22 775.85,585.66 C775.54,594.44 775.13,596.31 772.22,602.21 C767.63,611.53 760.39,617.42 747.50,622.34 C733.53,627.66 728.32,628.00 660.34,628.00 C611.33,628.00 597.84,627.73 597.47,626.75 ZM 645.90 609.44 C653.63,607.14 661.24,602.58 673.64,592.83 C677.02,590.17 680.06,588.00 680.41,588.00 C680.75,588.00 684.29,590.59 688.28,593.75 C702.47,605.02 714.58,610.94 723.50,610.97 C742.61,611.05 752.46,591.71 747.94,563.00 C747.37,559.42 746.66,554.91 746.35,552.97 L 745.79 549.43 L 751.65 547.61 C762.78,544.14 775.03,537.08 782.15,530.01 C789.25,522.96 790.98,519.24 790.99,511.07 C791.01,498.68 776.93,485.85 754.42,477.74 L 745.80 474.64 L 746.49 470.57 C749.40,453.40 749.66,443.34 747.42,434.70 C745.31,426.57 742.84,421.94 738.59,418.21 C732.03,412.45 723.94,411.61 712.74,415.52 C703.73,418.67 697.16,422.62 687.54,430.69 L 680.02 436.99 L 674.76 432.24 C671.87,429.62 666.34,425.38 662.48,422.82 C640.70,408.35 623.39,410.21 615.14,427.91 C612.85,432.82 612.49,435.02 612.21,446.00 C612.02,453.64 612.43,461.53 613.27,466.31 C614.82,475.07 615.07,474.60 607.50,477.01 C600.82,479.13 586.73,486.57 581.39,490.78 C572.44,497.86 567.79,507.75 569.40,516.31 C571.45,527.23 588.29,540.51 608.49,547.14 C613.49,548.78 614.93,549.68 614.58,550.90 C612.53,557.99 611.80,566.54 612.25,578.25 C612.82,593.15 613.87,596.63 619.77,603.18 C626.53,610.67 634.95,612.69 645.90,609.44 ZM 633.50 600.28 C630.63,599.60 626.10,595.07 624.21,591.00 C622.18,586.61 621.98,566.31 623.89,557.68 C624.94,552.90 625.47,551.97 626.84,552.51 C627.75,552.88 633.45,554.06 639.50,555.15 C645.55,556.23 651.42,557.30 652.55,557.53 C654.30,557.88 672.00,577.81 672.00,579.44 C672.00,579.75 670.14,581.69 667.87,583.75 C655.45,595.02 640.85,602.04 633.50,600.28 ZM 713.50 597.36 C707.42,594.76 693.89,585.64 690.04,581.54 L 687.93 579.30 L 692.26 574.40 C694.65,571.70 698.73,566.75 701.34,563.39 C706.06,557.30 706.11,557.27 712.29,556.64 C715.70,556.29 722.20,555.23 726.72,554.30 C731.24,553.37 735.18,552.84 735.47,553.14 C736.82,554.48 738.28,566.46 738.26,576.00 C738.22,597.57 730.20,604.49 713.50,597.36 ZM 676.47 567.83 C674.25,565.45 671.59,562.49 670.56,561.25 L 668.69 559.00 L 679.85 559.00 C685.98,559.00 691.00,559.34 691.00,559.75 C691.00,560.16 688.63,563.12 685.75,566.33 L 680.50 572.15 L 676.47 567.83 ZM 659.30 545.75 C656.59,542.78 646.01,525.06 642.50,517.61 L 639.73 511.73 L 644.47 502.61 C647.09,497.60 651.59,489.86 654.49,485.41 L 659.75 477.31 L 666.02 476.66 C673.95,475.83 686.93,475.81 694.70,476.63 C700.58,477.24 700.76,477.35 704.08,482.38 C710.68,492.37 720.00,509.42 719.98,511.45 C719.95,514.37 717.02,520.45 709.79,532.63 C699.89,549.32 702.42,548.00 680.22,548.00 C661.92,548.00 661.29,547.93 659.30,545.75 ZM 688.53 530.55 C692.73,528.80 696.68,524.71 698.59,520.14 C701.58,512.96 699.40,502.38 693.87,497.30 C680.54,485.04 658.50,496.04 660.23,514.08 C661.50,527.25 676.10,535.75 688.53,530.55 ZM 715.00 545.50 C715.00,543.58 725.41,525.97 726.36,526.28 C727.66,526.70 731.85,537.44 731.94,540.57 C731.99,542.34 731.03,542.82 725.25,543.90 C721.54,544.60 717.71,545.39 716.75,545.65 C715.79,545.92 715.00,545.85 715.00,545.50 ZM 637.50 544.31 C628.02,542.13 628.16,542.22 629.01,538.74 C630.44,532.95 633.17,526.00 634.02,526.00 C634.81,526.00 645.00,543.05 645.00,544.37 C645.00,545.06 640.64,545.03 637.50,544.31 ZM 611.50 537.10 C597.74,532.09 585.46,524.44 581.97,518.71 C579.47,514.62 579.47,509.38 581.96,505.29 C585.92,498.81 604.53,487.92 614.41,486.32 L 617.55 485.81 L 622.51 498.66 C625.24,505.72 627.34,512.17 627.17,513.00 C627.01,513.83 625.16,518.55 623.07,523.50 C620.97,528.45 618.94,533.96 618.55,535.75 C617.73,539.52 617.99,539.47 611.50,537.10 ZM 741.96 536.40 C741.43,535.01 741.00,533.62 741.00,533.32 C741.00,533.02 739.12,528.07 736.83,522.31 L 732.66 511.84 L 736.79 501.67 C739.06,496.08 741.21,490.26 741.57,488.75 C742.46,484.96 745.47,485.12 756.05,489.54 C770.45,495.55 780.83,504.82 780.96,511.80 C781.11,520.34 766.03,531.87 747.21,537.62 C743.02,538.90 742.90,538.87 741.96,536.40 ZM 633.55 498.09 C632.99,497.17 628.00,483.11 628.00,482.42 C628.00,482.20 634.86,480.60 640.75,479.47 C645.08,478.63 644.98,479.79 639.88,489.58 C635.13,498.69 634.47,499.58 633.55,498.09 ZM 720.26 488.79 C717.44,483.70 715.30,479.37 715.50,479.17 C716.05,478.61 729.65,481.17 731.18,482.11 C732.23,482.76 732.00,484.36 730.00,490.15 C728.62,494.12 727.02,497.52 726.44,497.70 C725.86,497.89 723.08,493.88 720.26,488.79 ZM 625.23 470.74 C623.98,469.19 621.99,454.54 622.02,447.09 C622.07,436.23 625.57,427.43 630.78,425.05 C639.06,421.28 657.02,428.95 668.87,441.32 L 672.24 444.84 L 663.56 455.40 C658.78,461.21 654.54,466.16 654.14,466.41 C653.74,466.66 647.64,467.80 640.59,468.95 C633.53,470.09 627.41,471.25 626.99,471.51 C626.57,471.77 625.78,471.42 625.23,470.74 ZM 732.00 471.02 C730.62,470.63 724.19,469.48 717.69,468.46 L 705.88 466.61 L 697.02 455.56 L 688.16 444.50 L 690.83 441.67 C694.74,437.51 701.66,432.63 709.55,428.43 C718.27,423.80 727.26,422.64 731.37,425.62 C735.67,428.74 738.19,437.02 738.18,448.00 C738.17,457.77 736.65,469.81 735.28,471.04 C734.85,471.42 733.38,471.41 732.00,471.02 ZM 670.00 464.73 C670.00,462.84 679.05,452.85 680.45,453.20 C682.38,453.68 691.11,464.02 690.46,465.06 C689.53,466.57 670.00,466.26 670.00,464.73 Z" fill="rgb(247,247,246)"></path>
</g>
</svg></svg><style>@media (prefers-color-scheme: light) { :root { filter: none; } }
@media (prefers-color-scheme: dark) { :root { filter: none; } }
</style></svg>